# xmcd
#
# Track frame offsets: 
#        150
#        23817
#        39096
#        61392
#        85156
#        107305
#        130253
#        148367
#        161733
#        182382
#        214057
#        231122
#
# Disc length: 3445 seconds
#
# Revision: 0
# Processed by: cddbd v1.5.2PL0 Copyright (c) Steve Scherf et al.
# Submitted via: ExactAudioCopy v1.1
#
DISCID=990d730c
DTITLE=The Crown - Cobra Speed Venom
DYEAR=2018
DGENRE=Death Metal
TTITLE0=Destroyed by Madness
TTITLE1=Iron Crown
TTITLE2=In the Name of Death
TTITLE3=We Avenge!
TTITLE4=Cobra Speed Venom
TTITLE5=World War Machine
TTITLE6=NecroHammer
TTITLE7=Rise in Blood
TTITLE8=Where My Grave Shall Stand
TTITLE9=The Sign of the Scythe
TTITLE10=Nemesis Diamond
TTITLE11=The Great Dying
EXTD=
EXTT0=
EXTT1=
EXTT2=
EXTT3=
EXTT4=
EXTT5=
EXTT6=
EXTT7=
EXTT8=
EXTT9=
EXTT10=
EXTT11=
PLAYORDER=
